# xmcd
#
# Track frame offsets:
#	225
#	19761
#	38762
#	50373
#	66365
#	80811
#	95079
#	112020
#	126914
#	142958
#
# Disc length: 2192 seconds
#
# Revision: 1
# Processed by: cddbd v1.5.2PL0 Copyright (c) Steve Scherf et al.
# Submitted via: audiograbber 1.83.01
#
DISCID=8e088d0a
DTITLE=John Deer - Gone Country
DYEAR=2007
DGENRE=Country
TTITLE0=Gone Country
TTITLE1=Every Day's A Diamond
TTITLE2=Gotta Dance
TTITLE3=Mercury Blues
TTITLE4=Jambalaya
TTITLE5=Don't Like That
TTITLE6=Keep Your Hands To Yourself
TTITLE7=Chattahoochie
TTITLE8=Highway To Hell
TTITLE9=Willow Garden
EXTD=
EXTT0=
EXTT1=
EXTT2=
EXTT3=
EXTT4=
EXTT5=
EXTT6=
EXTT7=
EXTT8=
EXTT9=
PLAYORDER=
